<svg xmlns="http://www.w3.org/2000/svg" width="60" height="60" viewBox="0 0 60 60">
    <g fill="none" fill-rule="evenodd">
        <path fill="#F80" d="M18.027 0h23.946c6.268 0 8.541.653 10.833 1.878a12.778 12.778 0 0 1 5.316 5.316C59.347 9.486 60 11.76 60 18.027v23.946c0 6.268-.653 8.541-1.878 10.833a12.778 12.778 0 0 1-5.316 5.316C50.514 59.347 48.24 60 41.973 60H18.027c-6.268 0-8.541-.653-10.833-1.878a12.778 12.778 0 0 1-5.316-5.316C.653 50.514 0 48.24 0 41.973V18.027C0 11.76.653 9.486 1.878 7.194a12.778 12.778 0 0 1 5.316-5.316C9.486.653 11.76 0 18.027 0z"/>
        <path fill="#FFF" d="M21.922 7.5h16.156c5.015 0 6.833.522 8.667 1.503 1.833.98 3.272 2.419 4.252 4.252.98 1.834 1.503 3.652 1.503 8.667v29.906c0 .234-.024.318-.07.404a.476.476 0 0 1-.198.198c-.086.046-.17.07-.404.07H21.922c-5.015 0-6.833-.522-8.667-1.503a10.222 10.222 0 0 1-4.252-4.252C8.023 44.91 7.5 43.093 7.5 38.078V21.922c0-5.015.522-6.833 1.503-8.667a10.222 10.222 0 0 1 4.252-4.252c1.834-.98 3.652-1.503 8.667-1.503z"/>
        <path fill="#0684BD" d="M19.043 14.297h21.9a4.746 4.746 0 0 1 4.746 4.746v11.072c0 3.47-3.277 5.643-5.667 6.346 1.072 2.024 2.75 5.085 5.037 9.184h-7.735l-5.104-8.84h-.332a1.047 1.047 0 0 1-1.046-1.046v-6.2h7.116v-7.534H22.053V35.54c0 2.252.442 6.147 3.845 10.105h-7.735c-2.843-2.08-3.866-6.332-3.866-8.84V19.044a4.746 4.746 0 0 1 4.746-4.746z"/>
    </g>
</svg>
